<mxfile host="Electron" agent="Mozilla/5.0 (Macintosh; Intel Mac OS X 10_15_7) AppleWebKit/537.36 (KHTML, like Gecko) draw.io/26.0.9 Chrome/128.0.6613.186 Electron/32.2.5 Safari/537.36" version="26.0.9">
  <diagram name="Page-1" id="9uRWhWa3TAE4Kd7SmpR9">
    <mxGraphModel dx="1114" dy="821" grid="1" gridSize="10" guides="1" tooltips="1" connect="1" arrows="1" fold="1" page="1" pageScale="1" pageWidth="827" pageHeight="1169" math="0" shadow="0">
      <root>
        <mxCell id="0" />
        <mxCell id="1" parent="0" />
        <mxCell id="V4Jv08QTmLxo57Aj__cm-14" style="edgeStyle=orthogonalEdgeStyle;rounded=0;orthogonalLoop=1;jettySize=auto;html=1;entryX=0;entryY=0.5;entryDx=0;entryDy=0;endArrow=block;endFill=1;dashed=1;dashPattern=1 1;" edge="1" parent="1" source="V4Jv08QTmLxo57Aj__cm-3" target="V4Jv08QTmLxo57Aj__cm-12">
          <mxGeometry relative="1" as="geometry" />
        </mxCell>
        <mxCell id="V4Jv08QTmLxo57Aj__cm-3" value="바운디드&lt;div&gt;컨텍스트 1&lt;/div&gt;" style="rounded=0;whiteSpace=wrap;html=1;" vertex="1" parent="1">
          <mxGeometry x="80" y="110" width="100" height="50" as="geometry" />
        </mxCell>
        <mxCell id="V4Jv08QTmLxo57Aj__cm-6" value="바운디드&lt;div&gt;컨텍스트 2&lt;/div&gt;" style="rounded=0;whiteSpace=wrap;html=1;" vertex="1" parent="1">
          <mxGeometry x="540" y="110" width="100" height="50" as="geometry" />
        </mxCell>
        <mxCell id="V4Jv08QTmLxo57Aj__cm-17" style="edgeStyle=orthogonalEdgeStyle;rounded=0;orthogonalLoop=1;jettySize=auto;html=1;entryX=0;entryY=0.5;entryDx=0;entryDy=0;endArrow=block;endFill=1;" edge="1" parent="1" source="V4Jv08QTmLxo57Aj__cm-11" target="V4Jv08QTmLxo57Aj__cm-13">
          <mxGeometry relative="1" as="geometry" />
        </mxCell>
        <mxCell id="V4Jv08QTmLxo57Aj__cm-11" value="메시지&lt;div&gt;프록시&lt;/div&gt;" style="rounded=0;whiteSpace=wrap;html=1;" vertex="1" parent="1">
          <mxGeometry x="310" y="110" width="100" height="50" as="geometry" />
        </mxCell>
        <mxCell id="V4Jv08QTmLxo57Aj__cm-15" style="edgeStyle=orthogonalEdgeStyle;rounded=0;orthogonalLoop=1;jettySize=auto;html=1;entryX=0;entryY=0.5;entryDx=0;entryDy=0;endArrow=block;endFill=1;" edge="1" parent="1" source="V4Jv08QTmLxo57Aj__cm-12" target="V4Jv08QTmLxo57Aj__cm-11">
          <mxGeometry relative="1" as="geometry" />
        </mxCell>
        <mxCell id="V4Jv08QTmLxo57Aj__cm-12" value="모델 A" style="shape=delay;whiteSpace=wrap;html=1;" vertex="1" parent="1">
          <mxGeometry x="210" y="120" width="70" height="30" as="geometry" />
        </mxCell>
        <mxCell id="V4Jv08QTmLxo57Aj__cm-18" style="edgeStyle=orthogonalEdgeStyle;rounded=0;orthogonalLoop=1;jettySize=auto;html=1;entryX=0;entryY=0.5;entryDx=0;entryDy=0;dashed=1;dashPattern=1 1;" edge="1" parent="1" source="V4Jv08QTmLxo57Aj__cm-13" target="V4Jv08QTmLxo57Aj__cm-6">
          <mxGeometry relative="1" as="geometry" />
        </mxCell>
        <mxCell id="V4Jv08QTmLxo57Aj__cm-13" value="모델 B" style="shape=delay;whiteSpace=wrap;html=1;" vertex="1" parent="1">
          <mxGeometry x="440" y="120" width="70" height="30" as="geometry" />
        </mxCell>
      </root>
    </mxGraphModel>
  </diagram>
</mxfile>
